{
  "accessors": [
    {
      "bufferView": 2,
      "componentType": 5126,
      "count": 30012,
      "max": [
        1.268130898475647,
        6.583675861358643,
        1.5092787742614746
      ],
      "min": [
        -1.2501417398452759,
        0.0006515628774650395,
        -1.3784692287445068
      ],
      "type": "VEC3"
    },
    {
      "bufferView": 2,
      "byteOffset": 360144,
      "componentType": 5126,
      "count": 30012,
      "max": [
        0.9999951124191284,
        0.9999871850013733,
        0.9999964237213135
      ],
      "min": [
        -0.999970555305481,
        -0.9999998211860657,
        -0.9999514818191528
      ],
      "type": "VEC3"
    },
    {
      "bufferView": 3,
      "componentType": 5126,
      "count": 30012,
      "max": [
        0.9999997615814209,
        0.9996727108955383,
        0.9999523162841797,
        1.0
      ],
      "min": [
        -0.999967634677887,
        -0.9999997019767761,
        -0.9999460577964783,
        -1.0
      ],
      "type": "VEC4"
    },
    {
      "bufferView": 1,
      "componentType": 5126,
      "count": 30012,
      "max": [
        0.9938260316848755,
        0.999500036239624
      ],
      "min": [
        0.0005000000237487257,
        0.0005000000237487257
      ],
      "type": "VEC2"
    },
    {
      "bufferView": 0,
      "componentType": 5125,
      "count": 170268,
      "type": "SCALAR"
    }
  ],
  "asset": {
    "extras": {
      "author": "Evanllelos (https://sketchfab.com/evanllelos2000)",
      "license": "CC-BY-NC-4.0 (http://creativecommons.org/licenses/by-nc/4.0/)",
      "source": "https://sketchfab.com/3d-models/ben-6568c7991b8e4a568d559e301dfbd641",
      "title": "Ben"
    },
    "generator": "Sketchfab-12.0.1",
    "version": "2.0"
  },
  "bufferViews": [
    {
      "buffer": 0,
      "byteLength": 681072,
      "name": "floatBufferViews",
      "target": 34963
    },
    {
      "buffer": 0,
      "byteLength": 240096,
      "byteOffset": 681072,
      "byteStride": 8,
      "name": "floatBufferViews",
      "target": 34962
    },
    {
      "buffer": 0,
      "byteLength": 720288,
      "byteOffset": 921168,
      "byteStride": 12,
      "name": "floatBufferViews",
      "target": 34962
    },
    {
      "buffer": 0,
      "byteLength": 480192,
      "byteOffset": 1641456,
      "byteStride": 16,
      "name": "floatBufferViews",
      "target": 34962
    }
  ],
  "buffers": [
    {
      "byteLength": 2121648,
      "uri": "scene.bin"
    }
  ],
  "images": [
    {
      "uri": "textures/MAT_Ben_baseColor.png"
    },
    {
      "uri": "textures/MAT_Ben_metallicRoughness.png"
    },
    {
      "uri": "textures/MAT_Ben_normal.png"
    }
  ],
  "materials": [
    {
      "doubleSided": true,
      "name": "MAT_Ben",
      "normalTexture": {
        "index": 2
      },
      "pbrMetallicRoughness": {
        "baseColorTexture": {
          "index": 0
        },
        "metallicFactor": 0.0,
        "metallicRoughnessTexture": {
          "index": 1
        }
      }
    }
  ],
  "meshes": [
    {
      "name": "BENMesh_MAT_Ben_0",
      "primitives": [
        {
          "attributes": {
            "NORMAL": 1,
            "POSITION": 0,
            "TANGENT": 2,
            "TEXCOORD_0": 3
          },
          "indices": 4,
          "material": 0,
          "mode": 4
        }
      ]
    }
  ],
  "nodes": [
    {
      "children": [
        1
      ],
      "matrix": [
        1.0,
        0.0,
        0.0,
        0.0,
        0.0,
        2.220446049250313e-16,
        -1.0,
        0.0,
        0.0,
        1.0,
        2.220446049250313e-16,
        0.0,
        0.0,
        0.0,
        0.0,
        1.0
      ],
      "name": "Sketchfab_model"
    },
    {
      "children": [
        2
      ],
      "matrix": [
        0.009999999776482582,
        0.0,
        0.0,
        0.0,
        0.0,
        0.0,
        0.009999999776482582,
        0.0,
        0.0,
        -0.009999999776482582,
        0.0,
        0.0,
        0.0,
        0.0,
        0.0,
        1.0
      ],
      "name": "fcbe69bacf7d4d02983728b9cd575eb9.fbx"
    },
    {
      "children": [
        3
      ],
      "name": "RootNode"
    },
    {
      "children": [
        4
      ],
      "name": "BENMesh"
    },
    {
      "mesh": 0,
      "name": "BENMesh_MAT_Ben_0"
    }
  ],
  "samplers": [
    {
      "magFilter": 9729,
      "minFilter": 9987,
      "wrapS": 10497,
      "wrapT": 10497
    }
  ],
  "scene": 0,
  "scenes": [
    {
      "name": "Sketchfab_Scene",
      "nodes": [
        0
      ]
    }
  ],
  "textures": [
    {
      "sampler": 0,
      "source": 0
    },
    {
      "sampler": 0,
      "source": 1
    },
    {
      "sampler": 0,
      "source": 2
    }
  ]
}
